HIERARCHY
ROOT Hips
{
	OFFSET 0.000000 0.000000 0.000000
	CHANNELS 6 Xposition Yposition Zposition Xrotation Yrotation Zrotation
	JOINT LeftUpLeg_virtual
	{
		OFFSET 0.000000 0.000000 0.000000
		CHANNELS 3 Xrotation Yrotation Zrotation
		JOINT LeftUpLeg
		{
			OFFSET 11.394100 -6.187798 -0.413800
			CHANNELS 3 Xrotation Yrotation Zrotation
			JOINT LeftLeg
			{
				OFFSET 0.430247 -32.302673 3.732800
				CHANNELS 3 Xrotation Yrotation Zrotation
				JOINT LeftFoot
				{
					OFFSET -0.430247 -48.264931 -6.423300
					CHANNELS 3 Xrotation Yrotation Zrotation
					JOINT LeftToeBase
					{
						OFFSET 4.230900 -16.068199 23.438400
						CHANNELS 3 Xrotation Yrotation Zrotation
						JOINT LeftToe_End
						{
							OFFSET 4.510700 0.695400 19.974600
							CHANNELS 3 Xrotation Yrotation Zrotation
							End Site
							{
								OFFSET 0 0 0
							}
						}
					}
				}
			}
		}
	}
	JOINT RightUpLeg_virtual
	{
		OFFSET 0.000000 0.000000 0.000000
		CHANNELS 3 Xrotation Yrotation Zrotation
		JOINT RightUpLeg
		{
			OFFSET -11.333700 -6.187798 -0.413800
			CHANNELS 3 Xrotation Yrotation Zrotation
			JOINT RightLeg
			{
				OFFSET -0.430392 -32.302628 3.733000
				CHANNELS 3 Xrotation Yrotation Zrotation
				JOINT RightFoot
				{
					OFFSET 0.430392 -48.264973 -6.423500
					CHANNELS 3 Xrotation Yrotation Zrotation
					JOINT RightToeBase
					{
						OFFSET -4.230900 -16.068199 23.438400
						CHANNELS 3 Xrotation Yrotation Zrotation
						JOINT RightToe_End
						{
							OFFSET -4.510700 0.695400 19.974600
							CHANNELS 3 Xrotation Yrotation Zrotation
							End Site
							{
								OFFSET 0 0 0
							}
						}
					}
				}
			}
		}
	}
	JOINT Spine_virtual
	{
		OFFSET 0.000000 0.000000 0.000000
		CHANNELS 3 Xrotation Yrotation Zrotation
		JOINT Spine
		{
			OFFSET -0.002400 12.777504 0.315300
			CHANNELS 3 Xrotation Yrotation Zrotation
			JOINT Spine1
			{
				OFFSET -0.002067 5.816869 0.032633
				CHANNELS 3 Xrotation Yrotation Zrotation
				JOINT Spine1_split
				{
					OFFSET -0.002067 5.816869 0.032633
					CHANNELS 3 Xrotation Yrotation Zrotation
					JOINT Spine2
					{
						OFFSET -0.002067 5.816869 0.032633
						CHANNELS 3 Xrotation Yrotation Zrotation
						JOINT Neck_virtual
						{
							OFFSET 0.000000 0.000000 0.000000
							CHANNELS 3 Xrotation Yrotation Zrotation
							JOINT Neck
							{
								OFFSET -0.003700 21.199493 -0.826900
								CHANNELS 3 Xrotation Yrotation Zrotation
								JOINT Head
								{
									OFFSET 0.000000 20.442200 4.834800
									CHANNELS 3 Xrotation Yrotation Zrotation
									JOINT HeadTop_End
									{
										OFFSET 0.000000 34.668396 4.968400
										CHANNELS 3 Xrotation Yrotation Zrotation
										End Site
										{
											OFFSET 0 0 0
										}
									}
								}
							}
						}
						JOINT LeftShoulder_virtual
						{
							OFFSET 0.000000 0.000000 0.000000
							CHANNELS 3 Xrotation Yrotation Zrotation
							JOINT LeftShoulder
							{
								OFFSET 3.288150 8.794197 -1.372250
								CHANNELS 3 Xrotation Yrotation Zrotation
								JOINT LeftShoulder_split
								{
									OFFSET 3.288150 8.794197 -1.372250
									CHANNELS 3 Xrotation Yrotation Zrotation
									JOINT LeftArm
									{
										OFFSET 11.953299 -2.279007 -0.146200
										CHANNELS 3 Xrotation Yrotation Zrotation
										JOINT LeftForeArm
										{
											OFFSET 18.448900 0.000000 0.000000
											CHANNELS 3 Xrotation Yrotation Zrotation
											JOINT LeftHand
											{
												OFFSET 29.527798 0.000000 0.000000
												CHANNELS 3 Xrotation Yrotation Zrotation
												End Site
												{
													OFFSET 0 0 0
												}
											}
										}
									}
								}
							}
						}
						JOINT RightShoulder_virtual
						{
							OFFSET 0.000000 0.000000 0.000000
							CHANNELS 3 Xrotation Yrotation Zrotation
							JOINT RightShoulder
							{
								OFFSET -3.249400 8.794197 -1.372250
								CHANNELS 3 Xrotation Yrotation Zrotation
								JOINT RightShoulder_split
								{
									OFFSET -3.249400 8.794197 -1.372250
									CHANNELS 3 Xrotation Yrotation Zrotation
									JOINT RightArm
									{
										OFFSET -11.953299 -2.279007 -0.146200
										CHANNELS 3 Xrotation Yrotation Zrotation
										JOINT RightForeArm
										{
											OFFSET -18.448900 0.000000 0.000000
											CHANNELS 3 Xrotation Yrotation Zrotation
											JOINT RightHand
											{
												OFFSET -29.527802 0.000000 0.000000
												CHANNELS 3 Xrotation Yrotation Zrotation
												End Site
												{
													OFFSET 0 0 0
												}
											}
										}
									}
								}
							}
						}
					}
				}
			}
		}
	}
}
MOTION
Frames: 5
Frame Time: 0.03333333
-0.301084 110.912239 -1.449524 0.000000 0.000000 0.000000 -87.523048 -6.893476 -1.359487 2.011910 22.818928 12.778394 -3.823752 1.529440 5.178826 20.604545 27.109120 -20.054434 -4.087673 -0.297863 1.577212 0.000000 0.000000 0.000000 -89.975612 -3.357190 0.881425 -0.530011 -23.702411 -15.692927 -4.091333 -3.337835 -6.318532 36.968061 -28.725341 31.553370 -11.320736 1.050963 -3.821472 0.000000 0.000000 0.000000 -87.643089 -7.408417 -3.053207 0.810994 -0.439446 -0.008883 -1.320848 0.456148 -0.259184 0.699047 0.908213 -0.358004 0.000000 0.000000 0.000000 -1.460726 0.502287 -0.294720 -5.363886 4.363153 -8.800579 3.263548 8.137176 -11.357256 0.000000 0.000000 0.000000 -0.380848 0.547440 -0.113554 0.351367 -6.277142 -0.783976 -0.648327 1.782619 -3.039278 45.253405 -42.193880 -31.348277 4.782238 -86.352401 4.025308 0.000000 0.000000 0.000000 -0.203604 0.865450 -0.477739 0.339422 0.605291 2.662688 7.627674 7.899627 -0.827667 -4.744891 1.143602 81.110518 -179.233221 54.366779 -179.874931 0.000000 0.000000 0.000000 
-0.278069 110.918625 -1.432987 0.000000 0.000000 0.000000 -87.528253 -6.883051 -1.347212 2.009761 22.804379 12.775570 -3.832305 1.514841 5.166068 20.595266 27.098405 -20.040011 -4.085705 -0.299078 1.581331 0.000000 0.000000 0.000000 -89.973406 -3.352210 0.890860 -0.541687 -23.708090 -15.703404 -4.104180 -3.336332 -6.322178 36.974696 -28.716885 31.552715 -11.337796 1.042510 -3.814361 0.000000 0.000000 0.000000 -87.635992 -7.384236 -3.046346 0.819845 -0.435367 0.006780 -1.317377 0.459813 -0.256357 0.719103 0.901529 -0.344439 0.000000 0.000000 0.000000 -1.467859 0.508137 -0.293137 -5.314020 4.418960 -8.842214 3.343581 8.245976 -11.351514 0.000000 0.000000 0.000000 -0.375241 0.549250 -0.123636 0.351347 -6.286245 -0.792406 -0.632128 1.840906 -3.008682 45.231394 -42.206567 -31.362484 4.815198 -86.352559 4.059090 0.000000 0.000000 0.000000 -0.188803 0.879984 -0.468316 0.348580 0.605198 2.671263 7.628505 7.893323 -0.863096 -4.708788 1.194530 81.056833 -179.261785 54.382256 -179.838908 0.000000 0.000000 0.000000 
-0.255749 110.928307 -1.418007 0.000000 0.000000 0.000000 -87.532856 -6.872147 -1.330002 2.009605 22.797793 12.765314 -3.841260 1.490539 5.155337 20.580531 27.085443 -20.023038 -4.073179 -0.301159 1.579167 0.000000 0.000000 0.000000 -89.972033 -3.347318 0.903176 -0.557802 -23.723006 -15.719489 -4.112647 -3.326076 -6.329067 36.966299 -28.713402 31.544795 -11.375340 1.036437 -3.804014 0.000000 0.000000 0.000000 -87.633916 -7.373077 -3.049008 0.832782 -0.438476 0.030887 -1.316906 0.462651 -0.251216 0.728129 0.891628 -0.317324 0.000000 0.000000 0.000000 -1.478253 0.512418 -0.290348 -5.329289 4.455821 -8.832334 3.714204 8.370532 -11.531537 0.000000 0.000000 0.000000 -0.369826 0.546532 -0.129753 0.346836 -6.281230 -0.810602 -0.604945 1.902178 -2.955907 45.185356 -42.209722 -31.418990 4.711388 -86.351862 3.959993 0.000000 0.000000 0.000000 -0.176196 0.891195 -0.458219 0.359095 0.596950 2.707164 7.623364 7.891370 -0.894072 -4.701085 1.303898 80.965452 -179.284666 54.435214 -179.796834 0.000000 0.000000 0.000000 
-0.235148 110.939377 -1.410660 0.000000 0.000000 0.000000 -87.536995 -6.861184 -1.309286 2.009783 22.797995 12.750708 -3.845504 1.454510 5.148155 20.558325 27.069506 -20.008952 -4.054586 -0.303694 1.571994 0.000000 0.000000 0.000000 -89.970715 -3.340776 0.918648 -0.579928 -23.746949 -15.740016 -4.111429 -3.306216 -6.337253 36.950685 -28.710540 31.534492 -11.436223 1.032292 -3.789198 0.000000 0.000000 0.000000 -87.640097 -7.374134 -3.061994 0.847055 -0.448868 0.059559 -1.320599 0.464325 -0.244592 0.724552 0.878966 -0.290566 0.000000 0.000000 0.000000 -1.492725 0.515786 -0.285085 -5.406397 4.475072 -8.785362 4.360655 8.500014 -11.889897 0.000000 0.000000 0.000000 -0.363750 0.539494 -0.132098 0.339980 -6.267054 -0.844622 -0.569177 1.954654 -2.880250 45.125526 -42.204347 -31.496724 4.466090 -86.331576 3.725143 0.000000 0.000000 0.000000 -0.166419 0.897671 -0.449282 0.371075 0.573451 2.760335 7.616154 7.903568 -0.921752 -4.713373 1.452592 80.851838 -179.291236 54.484897 -179.762492 0.000000 0.000000 0.000000 
-0.219186 110.950478 -1.408104 0.000000 0.000000 0.000000 -87.545683 -6.853419 -1.289439 2.008533 22.804806 12.734642 -3.842757 1.405085 5.145117 20.530685 27.047232 -20.004038 -4.034988 -0.306431 1.561087 0.000000 0.000000 0.000000 -89.969642 -3.327852 0.940873 -0.602731 -23.780379 -15.761638 -4.101935 -3.273991 -6.346200 36.933790 -28.704638 31.525332 -11.530718 1.030482 -3.770971 0.000000 0.000000 0.000000 -87.657159 -7.387247 -3.084450 0.860003 -0.466001 0.088183 -1.326325 0.464848 -0.237836 0.725680 0.868271 -0.268630 0.000000 0.000000 0.000000 -1.508641 0.517914 -0.277767 -5.535298 4.484168 -8.721261 5.229150 8.624822 -12.406217 0.000000 0.000000 0.000000 -0.355253 0.529628 -0.132215 0.331417 -6.242107 -0.901257 -0.540046 1.987806 -2.790837 45.060110 -42.196355 -31.572406 4.105702 -86.282474 3.381526 0.000000 0.000000 0.000000 -0.158321 0.900115 -0.443006 0.382360 0.530256 2.817405 7.608870 7.931026 -0.942453 -4.736658 1.613488 80.739721 -179.276989 54.501167 -179.744843 0.000000 0.000000 0.000000 
